<svg width="427" height="427" fill="none" xmlns="http://www.w3.org/2000/svg"><g clip-path="url('#clip0_1076_82511')"><path fill-rule="evenodd" clip-rule="evenodd" d="M135.29 286.333c-19.5-8.232-21.185-9.214-46.154-26.713L63.5 285.565l6.71 6.406 11.883-12.018c28.107 18.658 60.23 29.269 95.824 21.194 17.492-4.287 33.863-21.222 37-39.027 2.583-14.065-.842-27.287-10.319-37.009-16.519-18.278-70.474-34.778-70.474-34.778s-39.51-11.055-39.038-30.509c.49-10.852 12.069-18.325 20.676-21.185 31.892-9.083 62.849 8.075 88.3 25.435.047.037 10.513-10.028 10.513-10.028 18.528-18.555 51.605-17.379 70.929-18.055l34.428.555-101.59 167.786h128.651l9.338-22.694c-17.899 10.676-71.133 11.658-92.104 10.787l98.73-167.378-134.536.139-19.306 18.342c-28.367-18.871-64.145-28.12-97.935-14.713-16.824 5.953-34.446 22.065-36.167 40.157-2.581 18.926 8.024 34.713 22.961 45.342 28.412 19.824 67.098 15.565 90.317 43.14 13.901 18.499-2.618 47.87-53.001 28.879Z" fill="#fff"/></g><defs><clipPath id="clip0_1076_82511"><path fill="#fff" transform="translate(63.5 122.475)" d="M0 0h300v182.051H0z"/></clipPath></defs></svg>